<svg height="512pt" viewBox="0 -46 512.00787 512" width="512pt" xmlns="http://www.w3.org/2000/svg"><path d="m8.09375 184.105469c5.554688 9.074219 13.628906 16.339843 23.242188 20.910156 4.558593 2.167969 6.496093 7.625 4.324218 12.1875-2.171875 4.558594-7.628906 6.496094-12.1875 4.324219-3.65625-1.769532-7.15625-3.839844-10.46875-6.191406 10.027344 29.726562 37.882813 49.761718 69.257813 49.8125h.546875c-.527344-5.046876-.644532-10.125-.355469-15.1875 4.050781-48.753907 45.144531-86.058594 94.0625-85.386719h52.03125c5.050781 0 9.140625-4.09375 9.140625-9.140625 0-15.148438 12.28125-27.429688 27.429688-27.429688h27.429687c5.050781 0 9.140625 4.09375 9.140625 9.144532 0 5.046874-4.089844 9.140624-9.140625 9.140624h-27.429687c-5.050782 0-9.140626 4.09375-9.140626 9.144532 0 15.148437-12.28125 27.425781-27.429687 27.425781h-52.03125c-39.277344-.691406-72.390625 29.128906-75.804687 68.261719-.445313 6.921875.089843 13.871094 1.589843 20.644531.394531 1.828125.859375 3.546875 1.382813 5.277344.097656.335937.199218.683593.308594 1.023437.566406 1.828125 1.199218 3.566406 1.902343 5.292969l.21875.519531c8.765625 20.972656 26.707031 36.734375 48.632813 42.726563l.667968.171875c1.671876.441406 3.371094.804687 5.089844 1.125.859375.15625 1.738282.273437 2.605469.402344 1.246094.183593 2.480469.375 3.742187.496093 2.257813.207031 4.570313.347657 6.835938.347657 23.136719-.0625 44.882812-11.050782 58.664062-29.632813-4.332031-2.765625-8.488281-5.789063-12.453124-9.050781-3.882813-3.230469-4.414063-8.996094-1.183594-12.878906 3.226562-3.882813 8.992187-4.414063 12.875-1.183594 25.261718 21.015625 58.625 29.578125 90.886718 23.324218 32.261719-6.257812 60.003907-26.671874 75.578126-55.609374-4.90625-6.667969-8.644532-14.121094-11.054688-22.042969-1.394531-4.824219 1.363281-9.875 6.179688-11.304688 4.8125-1.433593 9.882812 1.289063 11.347656 6.09375 7.085937 24.035157 29.558594 40.214844 54.601562 39.308594 25.042969-.90625 46.289063-18.667969 51.617188-43.152344 5.332031-24.484375-6.605469-49.46875-29.007813-60.703125-1.164062 5.316406-2.726562 10.539063-4.671875 15.625-1.835937 4.703125-7.140625 7.03125-11.847656 5.191406-4.707031-1.835937-7.03125-7.144531-5.195312-11.847656 2.871093-7.390625 4.757812-15.125 5.605468-23.003906.148438-1.261719.238282-2.441406.328125-3.65625.15625-2.207031.304688-4.398438.304688-6.621094 0-39.640625-25.597657-74.742187-63.34375-86.855468 2.875 4.347656 5.429687 8.902343 7.644531 13.621093 1.523438 2.988281 1.285156 6.574219-.617188 9.335938-1.902343 2.761719-5.167968 4.261719-8.503906 3.90625-3.335937-.359375-6.207031-2.515625-7.484375-5.617188-19.976562-42.824219-69.210937-63.476562-113.761719-47.714843-6.742187 2.320312-13.183593 5.425781-19.199218 9.25-4.234375 2.757812-9.898438 1.5625-12.65625-2.667969-2.757813-4.230469-1.5625-9.898438 2.671875-12.65625 1.378906-.914063 2.824219-1.699219 4.242187-2.539063-19.363281-9.195312-42.082031-7.863281-60.234375 3.539063 4.238281 3.746093 8.027344 7.972656 11.292969 12.597656 1.949219 2.675781 2.296875 6.195313.914062 9.203125-1.382812 3.007812-4.285156 5.035156-7.585937 5.292969-3.300781.261719-6.484375-1.285157-8.324219-4.039063-4.3125-6.144531-9.835937-11.347656-16.226562-15.285156h-.085938c-23.800781-14.800781-54.953125-9.089844-71.953125 13.195312 3.617188 1.03125 7.148438 2.347657 10.5625 3.9375 3.027344 1.355469 5.085938 4.242188 5.378907 7.546876.289062 3.304687-1.230469 6.507812-3.976563 8.371093-2.746094 1.859375-6.285156 2.089844-9.25.59375-14.804687-6.996093-31.960937-7.015625-46.78125-.046875-14.816406 6.964844-25.75 20.1875-29.808594 36.054688 4.917969-1.871094 10.019531-3.203125 15.222657-3.96875 5.003906-.714844 9.636718 2.765625 10.347656 7.765625.710937 5-2.765625 9.632812-7.769532 10.34375-8.359374 1.203125-16.324218 4.332031-23.265624 9.144531l-.121094.101562c-23.816406 16.453126-30.671875 48.628907-15.625 73.359376.054687.128906.074218.238281.128906.332031zm0 0"/><path d="m388.546875 356.574219c47.890625 0 86.855469-30.753907 86.855469-68.570313-.015625-5.265625-.800782-10.503906-2.332032-15.542968-21.746093 4.953124-44.5625-.378907-61.859374-14.464844-21.390626 35.257812-58.367188 58.144531-99.464844 61.558594 13.25 18.546874 33.300781 31.097656 55.773437 34.910156 6.914063 1.429687 13.964844 2.136718 21.027344 2.109375zm0 0"/><path d="m290.71875 319.417969c-12.851562-1.128907-25.460938-4.183594-37.40625-9.070313-.332031-.039062-.660156-.105468-.984375-.191406-.914063-.390625-1.828125-.859375-2.742187-1.261719-.367188-.164062-.761719-.273437-1.125-.449219-3.175782 4.472657-6.75 8.648438-10.679688 12.472657.492188 14.753906 12.574219 26.472656 27.335938 26.515625 8.171874-.175782 16.015624 3.222656 21.476562 9.304687l52.882812 60.574219c1.882813 2.050781 4.53125 3.234375 7.3125 3.261719 5.371094.015625 9.738282-4.320313 9.757813-9.691407v-40.355468c-28.375-6.5625-52.441406-25.246094-65.828125-51.109375zm0 0"/></svg>